<mxfile host="Electron" modified="2024-03-17T13:24:38.514Z" agent="Mozilla/5.0 (Windows NT 10.0; Win64; x64) AppleWebKit/537.36 (KHTML, like Gecko) draw.io/24.0.4 Chrome/120.0.6099.109 Electron/28.1.0 Safari/537.36" etag="xwQNpvU09Ur-LAvqD-Kc" version="24.0.4" type="device">
  <diagram name="Страница — 1" id="NjXqn7U95McmY1wjKg6W">
    <mxGraphModel dx="1434" dy="844" grid="1" gridSize="10" guides="1" tooltips="1" connect="1" arrows="1" fold="1" page="1" pageScale="1" pageWidth="827" pageHeight="1169" math="0" shadow="0">
      <root>
        <mxCell id="0" />
        <mxCell id="1" parent="0" />
        <mxCell id="wtMzdkBzMsgTNk8zBj8u-1" value="начало" style="ellipse;whiteSpace=wrap;html=1;" vertex="1" parent="1">
          <mxGeometry x="354" width="120" height="30" as="geometry" />
        </mxCell>
        <mxCell id="wtMzdkBzMsgTNk8zBj8u-2" value="" style="endArrow=classic;html=1;rounded=0;" edge="1" parent="1">
          <mxGeometry width="50" height="50" relative="1" as="geometry">
            <mxPoint x="413.86" y="30" as="sourcePoint" />
            <mxPoint x="414" y="240" as="targetPoint" />
          </mxGeometry>
        </mxCell>
        <mxCell id="wtMzdkBzMsgTNk8zBj8u-3" value="" style="endArrow=none;html=1;rounded=0;" edge="1" parent="1">
          <mxGeometry width="50" height="50" relative="1" as="geometry">
            <mxPoint x="414" y="160" as="sourcePoint" />
            <mxPoint x="520" y="160" as="targetPoint" />
          </mxGeometry>
        </mxCell>
        <mxCell id="wtMzdkBzMsgTNk8zBj8u-4" value="&lt;div&gt;pair&amp;lt;int, int&amp;gt; BMSearch(string mainString, string substring)&amp;nbsp;&lt;span style=&quot;background-color: initial;&quot;&gt;{&lt;/span&gt;&lt;/div&gt;&lt;div&gt;&lt;span style=&quot;background-color: initial;&quot;&gt;&lt;br&gt;&lt;/span&gt;&lt;/div&gt;&lt;div&gt;&lt;span style=&quot;background-color: initial;&quot;&gt;&lt;div&gt;int sbLenght = substring.length();&lt;/div&gt;&lt;div&gt;&lt;span style=&quot;white-space:pre&quot;&gt;&#x9;&lt;/span&gt;int* tablet;&lt;/div&gt;&lt;div&gt;&lt;div&gt;pair&amp;lt;int, int&amp;gt; result = {-1, -1};&lt;/div&gt;&lt;div&gt;&lt;span style=&quot;white-space: normal;&quot;&gt;&lt;span style=&quot;white-space:pre&quot;&gt;&#x9;&lt;/span&gt;int currentIndexOnMain = sbLenght - 1;&lt;/span&gt;&lt;/div&gt;&lt;/div&gt;&lt;div&gt;bool flag;&lt;br&gt;&lt;/div&gt;&lt;div&gt;int indexOfMainString;&lt;br&gt;&lt;/div&gt;&lt;div&gt;&lt;div&gt;int startIndex;&lt;/div&gt;&lt;div&gt;&lt;span style=&quot;background-color: initial;&quot;&gt;int endIndex;&lt;/span&gt;&lt;br&gt;&lt;/div&gt;&lt;/div&gt;&lt;/span&gt;&lt;/div&gt;" style="rounded=0;whiteSpace=wrap;html=1;" vertex="1" parent="1">
          <mxGeometry x="520" y="80" width="260" height="160" as="geometry" />
        </mxCell>
        <mxCell id="wtMzdkBzMsgTNk8zBj8u-5" value="if (substring.size() &amp;lt; 1 || mainString.size() &amp;lt; 1)" style="rhombus;whiteSpace=wrap;html=1;" vertex="1" parent="1">
          <mxGeometry x="271" y="240" width="286" height="80" as="geometry" />
        </mxCell>
        <mxCell id="wtMzdkBzMsgTNk8zBj8u-6" value="" style="endArrow=none;html=1;rounded=0;entryX=0;entryY=0.5;entryDx=0;entryDy=0;" edge="1" parent="1" target="wtMzdkBzMsgTNk8zBj8u-5">
          <mxGeometry width="50" height="50" relative="1" as="geometry">
            <mxPoint x="210" y="280" as="sourcePoint" />
            <mxPoint x="260" y="230" as="targetPoint" />
          </mxGeometry>
        </mxCell>
        <mxCell id="wtMzdkBzMsgTNk8zBj8u-7" value="" style="endArrow=none;html=1;rounded=0;" edge="1" parent="1">
          <mxGeometry width="50" height="50" relative="1" as="geometry">
            <mxPoint x="558" y="280" as="sourcePoint" />
            <mxPoint x="640" y="280" as="targetPoint" />
          </mxGeometry>
        </mxCell>
        <mxCell id="wtMzdkBzMsgTNk8zBj8u-8" value="0" style="text;html=1;align=center;verticalAlign=middle;whiteSpace=wrap;rounded=0;" vertex="1" parent="1">
          <mxGeometry x="557" y="250" width="20" height="30" as="geometry" />
        </mxCell>
        <mxCell id="wtMzdkBzMsgTNk8zBj8u-9" value="" style="endArrow=classic;html=1;rounded=0;" edge="1" parent="1">
          <mxGeometry width="50" height="50" relative="1" as="geometry">
            <mxPoint x="640" y="280" as="sourcePoint" />
            <mxPoint x="640" y="360" as="targetPoint" />
          </mxGeometry>
        </mxCell>
        <mxCell id="wtMzdkBzMsgTNk8zBj8u-13" style="edgeStyle=orthogonalEdgeStyle;rounded=0;orthogonalLoop=1;jettySize=auto;html=1;entryX=0.5;entryY=0;entryDx=0;entryDy=0;" edge="1" parent="1" source="wtMzdkBzMsgTNk8zBj8u-10" target="wtMzdkBzMsgTNk8zBj8u-12">
          <mxGeometry relative="1" as="geometry" />
        </mxCell>
        <mxCell id="wtMzdkBzMsgTNk8zBj8u-10" value="for (int i = 0; i &amp;lt; 256; i++)" style="shape=hexagon;perimeter=hexagonPerimeter2;whiteSpace=wrap;html=1;fixedSize=1;" vertex="1" parent="1">
          <mxGeometry x="570" y="360" width="140" height="40" as="geometry" />
        </mxCell>
        <mxCell id="wtMzdkBzMsgTNk8zBj8u-12" value="tablet[i] = sbLenght;" style="rounded=0;whiteSpace=wrap;html=1;" vertex="1" parent="1">
          <mxGeometry x="580" y="430" width="120" height="20" as="geometry" />
        </mxCell>
        <mxCell id="wtMzdkBzMsgTNk8zBj8u-14" value="" style="endArrow=none;html=1;rounded=0;" edge="1" parent="1">
          <mxGeometry width="50" height="50" relative="1" as="geometry">
            <mxPoint x="640" y="480" as="sourcePoint" />
            <mxPoint x="639.76" y="450" as="targetPoint" />
          </mxGeometry>
        </mxCell>
        <mxCell id="wtMzdkBzMsgTNk8zBj8u-15" value="" style="endArrow=none;html=1;rounded=0;" edge="1" parent="1">
          <mxGeometry width="50" height="50" relative="1" as="geometry">
            <mxPoint x="520" y="480" as="sourcePoint" />
            <mxPoint x="640" y="480" as="targetPoint" />
          </mxGeometry>
        </mxCell>
        <mxCell id="wtMzdkBzMsgTNk8zBj8u-16" value="" style="endArrow=none;html=1;rounded=0;" edge="1" parent="1">
          <mxGeometry width="50" height="50" relative="1" as="geometry">
            <mxPoint x="520" y="480" as="sourcePoint" />
            <mxPoint x="520" y="380" as="targetPoint" />
          </mxGeometry>
        </mxCell>
        <mxCell id="wtMzdkBzMsgTNk8zBj8u-17" value="" style="endArrow=classic;html=1;rounded=0;entryX=0;entryY=0.5;entryDx=0;entryDy=0;" edge="1" parent="1" target="wtMzdkBzMsgTNk8zBj8u-10">
          <mxGeometry width="50" height="50" relative="1" as="geometry">
            <mxPoint x="520" y="380" as="sourcePoint" />
            <mxPoint x="570" y="330" as="targetPoint" />
          </mxGeometry>
        </mxCell>
        <mxCell id="wtMzdkBzMsgTNk8zBj8u-18" value="1" style="text;html=1;align=center;verticalAlign=middle;whiteSpace=wrap;rounded=0;" vertex="1" parent="1">
          <mxGeometry x="620" y="400" width="20" height="30" as="geometry" />
        </mxCell>
        <mxCell id="wtMzdkBzMsgTNk8zBj8u-19" value="" style="endArrow=none;html=1;rounded=0;" edge="1" parent="1">
          <mxGeometry width="50" height="50" relative="1" as="geometry">
            <mxPoint x="710" y="380" as="sourcePoint" />
            <mxPoint x="800" y="380" as="targetPoint" />
          </mxGeometry>
        </mxCell>
        <mxCell id="wtMzdkBzMsgTNk8zBj8u-20" value="0" style="text;html=1;align=center;verticalAlign=middle;whiteSpace=wrap;rounded=0;" vertex="1" parent="1">
          <mxGeometry x="710" y="350" width="20" height="30" as="geometry" />
        </mxCell>
        <mxCell id="wtMzdkBzMsgTNk8zBj8u-21" value="" style="endArrow=classic;html=1;rounded=0;" edge="1" parent="1">
          <mxGeometry width="50" height="50" relative="1" as="geometry">
            <mxPoint x="800" y="380" as="sourcePoint" />
            <mxPoint x="800" y="480" as="targetPoint" />
          </mxGeometry>
        </mxCell>
        <mxCell id="wtMzdkBzMsgTNk8zBj8u-25" style="edgeStyle=orthogonalEdgeStyle;rounded=0;orthogonalLoop=1;jettySize=auto;html=1;entryX=0.5;entryY=0;entryDx=0;entryDy=0;" edge="1" parent="1" source="wtMzdkBzMsgTNk8zBj8u-22" target="wtMzdkBzMsgTNk8zBj8u-24">
          <mxGeometry relative="1" as="geometry" />
        </mxCell>
        <mxCell id="wtMzdkBzMsgTNk8zBj8u-22" value="for (int i = sbLenght - 2; i &amp;gt; -1; i--)" style="shape=hexagon;perimeter=hexagonPerimeter2;whiteSpace=wrap;html=1;fixedSize=1;" vertex="1" parent="1">
          <mxGeometry x="705" y="480" width="190" height="40" as="geometry" />
        </mxCell>
        <mxCell id="wtMzdkBzMsgTNk8zBj8u-24" value="if (tablet[(int)((unsigned char)substring[i])] == sbLenght)" style="rhombus;whiteSpace=wrap;html=1;" vertex="1" parent="1">
          <mxGeometry x="625" y="545" width="350" height="80" as="geometry" />
        </mxCell>
        <mxCell id="wtMzdkBzMsgTNk8zBj8u-26" value="" style="endArrow=none;html=1;rounded=0;" edge="1" parent="1">
          <mxGeometry width="50" height="50" relative="1" as="geometry">
            <mxPoint x="560" y="585" as="sourcePoint" />
            <mxPoint x="625" y="584.76" as="targetPoint" />
          </mxGeometry>
        </mxCell>
        <mxCell id="wtMzdkBzMsgTNk8zBj8u-27" value="0" style="text;html=1;align=center;verticalAlign=middle;whiteSpace=wrap;rounded=0;" vertex="1" parent="1">
          <mxGeometry x="612" y="555" width="13" height="30" as="geometry" />
        </mxCell>
        <mxCell id="wtMzdkBzMsgTNk8zBj8u-28" value="" style="endArrow=none;html=1;rounded=0;" edge="1" parent="1">
          <mxGeometry width="50" height="50" relative="1" as="geometry">
            <mxPoint x="976" y="585" as="sourcePoint" />
            <mxPoint x="1040" y="585" as="targetPoint" />
          </mxGeometry>
        </mxCell>
        <mxCell id="wtMzdkBzMsgTNk8zBj8u-30" value="1" style="text;html=1;align=center;verticalAlign=middle;whiteSpace=wrap;rounded=0;" vertex="1" parent="1">
          <mxGeometry x="975" y="555" width="20" height="30" as="geometry" />
        </mxCell>
        <mxCell id="wtMzdkBzMsgTNk8zBj8u-31" value="" style="endArrow=classic;html=1;rounded=0;" edge="1" parent="1">
          <mxGeometry width="50" height="50" relative="1" as="geometry">
            <mxPoint x="1040" y="585" as="sourcePoint" />
            <mxPoint x="1040" y="640" as="targetPoint" />
          </mxGeometry>
        </mxCell>
        <mxCell id="wtMzdkBzMsgTNk8zBj8u-32" value="tablet[(int)((unsigned char)substring[i])] = sbLenght - i - 1;" style="rounded=0;whiteSpace=wrap;html=1;" vertex="1" parent="1">
          <mxGeometry x="970" y="640" width="140" height="60" as="geometry" />
        </mxCell>
        <mxCell id="wtMzdkBzMsgTNk8zBj8u-33" value="" style="endArrow=none;html=1;rounded=0;entryX=0.5;entryY=1;entryDx=0;entryDy=0;" edge="1" parent="1" target="wtMzdkBzMsgTNk8zBj8u-32">
          <mxGeometry width="50" height="50" relative="1" as="geometry">
            <mxPoint x="1040" y="760" as="sourcePoint" />
            <mxPoint x="1090" y="710" as="targetPoint" />
          </mxGeometry>
        </mxCell>
        <mxCell id="wtMzdkBzMsgTNk8zBj8u-34" value="" style="endArrow=none;html=1;rounded=0;" edge="1" parent="1">
          <mxGeometry width="50" height="50" relative="1" as="geometry">
            <mxPoint x="560" y="760" as="sourcePoint" />
            <mxPoint x="560" y="580" as="targetPoint" />
          </mxGeometry>
        </mxCell>
        <mxCell id="wtMzdkBzMsgTNk8zBj8u-35" value="" style="endArrow=none;html=1;rounded=0;" edge="1" parent="1">
          <mxGeometry width="50" height="50" relative="1" as="geometry">
            <mxPoint x="560" y="760" as="sourcePoint" />
            <mxPoint x="1040" y="760" as="targetPoint" />
          </mxGeometry>
        </mxCell>
        <mxCell id="wtMzdkBzMsgTNk8zBj8u-36" value="{" style="text;html=1;align=center;verticalAlign=middle;whiteSpace=wrap;rounded=0;" vertex="1" parent="1">
          <mxGeometry x="1020" y="600" width="20" height="30" as="geometry" />
        </mxCell>
        <mxCell id="wtMzdkBzMsgTNk8zBj8u-37" value="}" style="text;html=1;align=center;verticalAlign=middle;whiteSpace=wrap;rounded=0;" vertex="1" parent="1">
          <mxGeometry x="1040" y="710" width="10" height="30" as="geometry" />
        </mxCell>
        <mxCell id="wtMzdkBzMsgTNk8zBj8u-38" value="" style="endArrow=none;html=1;rounded=0;" edge="1" parent="1">
          <mxGeometry width="50" height="50" relative="1" as="geometry">
            <mxPoint x="800" y="800" as="sourcePoint" />
            <mxPoint x="800" y="760" as="targetPoint" />
          </mxGeometry>
        </mxCell>
        <mxCell id="wtMzdkBzMsgTNk8zBj8u-39" value="" style="endArrow=none;html=1;rounded=0;" edge="1" parent="1">
          <mxGeometry width="50" height="50" relative="1" as="geometry">
            <mxPoint x="520" y="800" as="sourcePoint" />
            <mxPoint x="800" y="800" as="targetPoint" />
          </mxGeometry>
        </mxCell>
        <mxCell id="wtMzdkBzMsgTNk8zBj8u-40" value="" style="endArrow=none;html=1;rounded=0;" edge="1" parent="1">
          <mxGeometry width="50" height="50" relative="1" as="geometry">
            <mxPoint x="520" y="800" as="sourcePoint" />
            <mxPoint x="520" y="500" as="targetPoint" />
          </mxGeometry>
        </mxCell>
        <mxCell id="wtMzdkBzMsgTNk8zBj8u-41" value="" style="endArrow=classic;html=1;rounded=0;entryX=0;entryY=0.5;entryDx=0;entryDy=0;" edge="1" parent="1" target="wtMzdkBzMsgTNk8zBj8u-22">
          <mxGeometry width="50" height="50" relative="1" as="geometry">
            <mxPoint x="520" y="500" as="sourcePoint" />
            <mxPoint x="570" y="450" as="targetPoint" />
          </mxGeometry>
        </mxCell>
        <mxCell id="wtMzdkBzMsgTNk8zBj8u-42" value="1" style="text;html=1;align=center;verticalAlign=middle;whiteSpace=wrap;rounded=0;" vertex="1" parent="1">
          <mxGeometry x="780" y="520" width="20" height="30" as="geometry" />
        </mxCell>
        <mxCell id="wtMzdkBzMsgTNk8zBj8u-43" value="" style="endArrow=none;html=1;rounded=0;" edge="1" parent="1">
          <mxGeometry width="50" height="50" relative="1" as="geometry">
            <mxPoint x="895" y="500" as="sourcePoint" />
            <mxPoint x="1600" y="500" as="targetPoint" />
          </mxGeometry>
        </mxCell>
        <mxCell id="wtMzdkBzMsgTNk8zBj8u-44" value="0" style="text;html=1;align=center;verticalAlign=middle;whiteSpace=wrap;rounded=0;" vertex="1" parent="1">
          <mxGeometry x="895" y="470" width="20" height="30" as="geometry" />
        </mxCell>
        <mxCell id="wtMzdkBzMsgTNk8zBj8u-45" value="{" style="text;html=1;align=center;verticalAlign=middle;whiteSpace=wrap;rounded=0;" vertex="1" parent="1">
          <mxGeometry x="640" y="400" width="20" height="30" as="geometry" />
        </mxCell>
        <mxCell id="wtMzdkBzMsgTNk8zBj8u-46" value="}" style="text;html=1;align=center;verticalAlign=middle;whiteSpace=wrap;rounded=0;" vertex="1" parent="1">
          <mxGeometry x="640" y="450" width="20" height="30" as="geometry" />
        </mxCell>
        <mxCell id="wtMzdkBzMsgTNk8zBj8u-47" value="{" style="text;html=1;align=center;verticalAlign=middle;whiteSpace=wrap;rounded=0;" vertex="1" parent="1">
          <mxGeometry x="800" y="520" width="20" height="30" as="geometry" />
        </mxCell>
        <mxCell id="wtMzdkBzMsgTNk8zBj8u-48" value="}" style="text;html=1;align=center;verticalAlign=middle;whiteSpace=wrap;rounded=0;" vertex="1" parent="1">
          <mxGeometry x="800" y="760" width="20" height="30" as="geometry" />
        </mxCell>
        <mxCell id="wtMzdkBzMsgTNk8zBj8u-49" value="" style="endArrow=classic;html=1;rounded=0;" edge="1" parent="1">
          <mxGeometry width="50" height="50" relative="1" as="geometry">
            <mxPoint x="1600" y="500" as="sourcePoint" />
            <mxPoint x="1600" y="560" as="targetPoint" />
          </mxGeometry>
        </mxCell>
        <mxCell id="wtMzdkBzMsgTNk8zBj8u-53" style="edgeStyle=orthogonalEdgeStyle;rounded=0;orthogonalLoop=1;jettySize=auto;html=1;entryX=0.5;entryY=0;entryDx=0;entryDy=0;" edge="1" parent="1" source="wtMzdkBzMsgTNk8zBj8u-50" target="wtMzdkBzMsgTNk8zBj8u-52">
          <mxGeometry relative="1" as="geometry" />
        </mxCell>
        <mxCell id="wtMzdkBzMsgTNk8zBj8u-50" value="while (currentIndexOnMain &amp;lt; mainString.length() &amp;amp;&amp;amp; result.first == -1)" style="rhombus;whiteSpace=wrap;html=1;" vertex="1" parent="1">
          <mxGeometry x="1383" y="560" width="435" height="80" as="geometry" />
        </mxCell>
        <mxCell id="wtMzdkBzMsgTNk8zBj8u-56" style="edgeStyle=orthogonalEdgeStyle;rounded=0;orthogonalLoop=1;jettySize=auto;html=1;entryX=0.5;entryY=0;entryDx=0;entryDy=0;" edge="1" parent="1" source="wtMzdkBzMsgTNk8zBj8u-52" target="wtMzdkBzMsgTNk8zBj8u-55">
          <mxGeometry relative="1" as="geometry" />
        </mxCell>
        <mxCell id="wtMzdkBzMsgTNk8zBj8u-52" value="flag = true;" style="rounded=0;whiteSpace=wrap;html=1;" vertex="1" parent="1">
          <mxGeometry x="1540.5" y="670" width="120" height="20" as="geometry" />
        </mxCell>
        <mxCell id="wtMzdkBzMsgTNk8zBj8u-58" style="edgeStyle=orthogonalEdgeStyle;rounded=0;orthogonalLoop=1;jettySize=auto;html=1;entryX=0.5;entryY=0;entryDx=0;entryDy=0;" edge="1" parent="1" source="wtMzdkBzMsgTNk8zBj8u-55" target="wtMzdkBzMsgTNk8zBj8u-57">
          <mxGeometry relative="1" as="geometry" />
        </mxCell>
        <mxCell id="wtMzdkBzMsgTNk8zBj8u-55" value="for (int i = sbLenght - 1; i &amp;gt; -1 &amp;amp;&amp;amp; flag; i--)" style="shape=hexagon;perimeter=hexagonPerimeter2;whiteSpace=wrap;html=1;fixedSize=1;" vertex="1" parent="1">
          <mxGeometry x="1486" y="723" width="229" height="30" as="geometry" />
        </mxCell>
        <mxCell id="wtMzdkBzMsgTNk8zBj8u-62" style="edgeStyle=orthogonalEdgeStyle;rounded=0;orthogonalLoop=1;jettySize=auto;html=1;entryX=0.5;entryY=0;entryDx=0;entryDy=0;" edge="1" parent="1" source="wtMzdkBzMsgTNk8zBj8u-57" target="wtMzdkBzMsgTNk8zBj8u-61">
          <mxGeometry relative="1" as="geometry" />
        </mxCell>
        <mxCell id="wtMzdkBzMsgTNk8zBj8u-57" value="indexOfMainString = currentIndexOnMain - sbLenght + i + 1;" style="rounded=0;whiteSpace=wrap;html=1;" vertex="1" parent="1">
          <mxGeometry x="1436" y="800" width="329" height="30" as="geometry" />
        </mxCell>
        <mxCell id="wtMzdkBzMsgTNk8zBj8u-59" value="1" style="text;html=1;align=center;verticalAlign=middle;whiteSpace=wrap;rounded=0;" vertex="1" parent="1">
          <mxGeometry x="1580" y="770" width="20" height="30" as="geometry" />
        </mxCell>
        <mxCell id="wtMzdkBzMsgTNk8zBj8u-60" value="{" style="text;html=1;align=center;verticalAlign=middle;whiteSpace=wrap;rounded=0;" vertex="1" parent="1">
          <mxGeometry x="1600" y="770" width="20" height="30" as="geometry" />
        </mxCell>
        <mxCell id="wtMzdkBzMsgTNk8zBj8u-64" style="edgeStyle=orthogonalEdgeStyle;rounded=0;orthogonalLoop=1;jettySize=auto;html=1;entryX=0.5;entryY=0;entryDx=0;entryDy=0;" edge="1" parent="1" source="wtMzdkBzMsgTNk8zBj8u-61" target="wtMzdkBzMsgTNk8zBj8u-63">
          <mxGeometry relative="1" as="geometry" />
        </mxCell>
        <mxCell id="wtMzdkBzMsgTNk8zBj8u-61" value="flag = substring[i] == mainString[indexOfMainString];" style="rounded=0;whiteSpace=wrap;html=1;" vertex="1" parent="1">
          <mxGeometry x="1456" y="860" width="289" height="30" as="geometry" />
        </mxCell>
        <mxCell id="wtMzdkBzMsgTNk8zBj8u-63" value="if (!flag)" style="rhombus;whiteSpace=wrap;html=1;" vertex="1" parent="1">
          <mxGeometry x="1561" y="920" width="80" height="40" as="geometry" />
        </mxCell>
        <mxCell id="wtMzdkBzMsgTNk8zBj8u-65" value="" style="endArrow=none;html=1;rounded=0;entryX=0;entryY=0.5;entryDx=0;entryDy=0;" edge="1" parent="1" target="wtMzdkBzMsgTNk8zBj8u-63">
          <mxGeometry width="50" height="50" relative="1" as="geometry">
            <mxPoint x="1480" y="940" as="sourcePoint" />
            <mxPoint x="1570" y="890" as="targetPoint" />
          </mxGeometry>
        </mxCell>
        <mxCell id="wtMzdkBzMsgTNk8zBj8u-66" value="" style="endArrow=none;html=1;rounded=0;" edge="1" parent="1">
          <mxGeometry width="50" height="50" relative="1" as="geometry">
            <mxPoint x="1640" y="940" as="sourcePoint" />
            <mxPoint x="1760" y="940" as="targetPoint" />
          </mxGeometry>
        </mxCell>
        <mxCell id="wtMzdkBzMsgTNk8zBj8u-67" value="1" style="text;html=1;align=center;verticalAlign=middle;whiteSpace=wrap;rounded=0;" vertex="1" parent="1">
          <mxGeometry x="1544" y="910" width="17" height="30" as="geometry" />
        </mxCell>
        <mxCell id="wtMzdkBzMsgTNk8zBj8u-68" value="0" style="text;html=1;align=center;verticalAlign=middle;whiteSpace=wrap;rounded=0;" vertex="1" parent="1">
          <mxGeometry x="1640.5" y="910" width="20" height="30" as="geometry" />
        </mxCell>
        <mxCell id="wtMzdkBzMsgTNk8zBj8u-69" value="" style="endArrow=classic;html=1;rounded=0;" edge="1" parent="1">
          <mxGeometry width="50" height="50" relative="1" as="geometry">
            <mxPoint x="1480" y="940" as="sourcePoint" />
            <mxPoint x="1480" y="1000" as="targetPoint" />
          </mxGeometry>
        </mxCell>
        <mxCell id="wtMzdkBzMsgTNk8zBj8u-70" value="currentIndexOnMain += tablet[(int)((unsigned char)mainString[indexOfMainString])];" style="rounded=0;whiteSpace=wrap;html=1;" vertex="1" parent="1">
          <mxGeometry x="1370" y="1000" width="210" height="60" as="geometry" />
        </mxCell>
        <mxCell id="wtMzdkBzMsgTNk8zBj8u-71" value="" style="endArrow=classic;html=1;rounded=0;" edge="1" parent="1">
          <mxGeometry width="50" height="50" relative="1" as="geometry">
            <mxPoint x="1760" y="940" as="sourcePoint" />
            <mxPoint x="1760" y="960" as="targetPoint" />
          </mxGeometry>
        </mxCell>
        <mxCell id="wtMzdkBzMsgTNk8zBj8u-72" value="if (i == 0)" style="rhombus;whiteSpace=wrap;html=1;" vertex="1" parent="1">
          <mxGeometry x="1720" y="960" width="80" height="40" as="geometry" />
        </mxCell>
        <mxCell id="wtMzdkBzMsgTNk8zBj8u-73" value="" style="endArrow=none;html=1;rounded=0;entryX=0;entryY=0.5;entryDx=0;entryDy=0;" edge="1" parent="1" target="wtMzdkBzMsgTNk8zBj8u-72">
          <mxGeometry width="50" height="50" relative="1" as="geometry">
            <mxPoint x="1680" y="980" as="sourcePoint" />
            <mxPoint x="1730" y="930" as="targetPoint" />
          </mxGeometry>
        </mxCell>
        <mxCell id="wtMzdkBzMsgTNk8zBj8u-74" value="1" style="text;html=1;align=center;verticalAlign=middle;whiteSpace=wrap;rounded=0;" vertex="1" parent="1">
          <mxGeometry x="1703" y="950" width="17" height="30" as="geometry" />
        </mxCell>
        <mxCell id="wtMzdkBzMsgTNk8zBj8u-75" value="" style="endArrow=classic;html=1;rounded=0;entryX=0.5;entryY=0;entryDx=0;entryDy=0;" edge="1" parent="1" target="wtMzdkBzMsgTNk8zBj8u-76">
          <mxGeometry width="50" height="50" relative="1" as="geometry">
            <mxPoint x="1680" y="980" as="sourcePoint" />
            <mxPoint x="1680" y="1000" as="targetPoint" />
          </mxGeometry>
        </mxCell>
        <mxCell id="wtMzdkBzMsgTNk8zBj8u-78" style="edgeStyle=orthogonalEdgeStyle;rounded=0;orthogonalLoop=1;jettySize=auto;html=1;entryX=0.5;entryY=0;entryDx=0;entryDy=0;" edge="1" parent="1" source="wtMzdkBzMsgTNk8zBj8u-76" target="wtMzdkBzMsgTNk8zBj8u-77">
          <mxGeometry relative="1" as="geometry" />
        </mxCell>
        <mxCell id="wtMzdkBzMsgTNk8zBj8u-76" value="startIndex = indexOfMainString;" style="rounded=0;whiteSpace=wrap;html=1;" vertex="1" parent="1">
          <mxGeometry x="1617" y="1015" width="128" height="30" as="geometry" />
        </mxCell>
        <mxCell id="wtMzdkBzMsgTNk8zBj8u-80" style="edgeStyle=orthogonalEdgeStyle;rounded=0;orthogonalLoop=1;jettySize=auto;html=1;entryX=0.5;entryY=0;entryDx=0;entryDy=0;" edge="1" parent="1" source="wtMzdkBzMsgTNk8zBj8u-77" target="wtMzdkBzMsgTNk8zBj8u-79">
          <mxGeometry relative="1" as="geometry" />
        </mxCell>
        <mxCell id="wtMzdkBzMsgTNk8zBj8u-77" value="endIndex = indexOfMainString + sbLenght - 1;" style="rounded=0;whiteSpace=wrap;html=1;" vertex="1" parent="1">
          <mxGeometry x="1621" y="1070" width="120" height="60" as="geometry" />
        </mxCell>
        <mxCell id="wtMzdkBzMsgTNk8zBj8u-79" value="result = { startIndex, endIndex };" style="rounded=0;whiteSpace=wrap;html=1;" vertex="1" parent="1">
          <mxGeometry x="1591" y="1160" width="180" height="30" as="geometry" />
        </mxCell>
        <mxCell id="wtMzdkBzMsgTNk8zBj8u-81" value="{" style="text;html=1;align=center;verticalAlign=middle;whiteSpace=wrap;rounded=0;" vertex="1" parent="1">
          <mxGeometry x="1680" y="980" width="20" height="30" as="geometry" />
        </mxCell>
        <mxCell id="wtMzdkBzMsgTNk8zBj8u-82" value="" style="endArrow=none;html=1;rounded=0;entryX=0.5;entryY=1;entryDx=0;entryDy=0;" edge="1" parent="1" target="wtMzdkBzMsgTNk8zBj8u-79">
          <mxGeometry width="50" height="50" relative="1" as="geometry">
            <mxPoint x="1680" y="1240" as="sourcePoint" />
            <mxPoint x="1730" y="1190" as="targetPoint" />
          </mxGeometry>
        </mxCell>
        <mxCell id="wtMzdkBzMsgTNk8zBj8u-84" value="}" style="text;html=1;align=center;verticalAlign=middle;whiteSpace=wrap;rounded=0;" vertex="1" parent="1">
          <mxGeometry x="1680" y="1190" width="10" height="30" as="geometry" />
        </mxCell>
        <mxCell id="wtMzdkBzMsgTNk8zBj8u-85" value="" style="endArrow=none;html=1;rounded=0;" edge="1" parent="1">
          <mxGeometry width="50" height="50" relative="1" as="geometry">
            <mxPoint x="1800" y="980" as="sourcePoint" />
            <mxPoint x="1840" y="980" as="targetPoint" />
          </mxGeometry>
        </mxCell>
        <mxCell id="wtMzdkBzMsgTNk8zBj8u-86" value="0" style="text;html=1;align=center;verticalAlign=middle;whiteSpace=wrap;rounded=0;" vertex="1" parent="1">
          <mxGeometry x="1798" y="950" width="20" height="30" as="geometry" />
        </mxCell>
        <mxCell id="wtMzdkBzMsgTNk8zBj8u-87" value="" style="endArrow=none;html=1;rounded=0;" edge="1" parent="1">
          <mxGeometry width="50" height="50" relative="1" as="geometry">
            <mxPoint x="1840" y="1240" as="sourcePoint" />
            <mxPoint x="1840" y="980" as="targetPoint" />
          </mxGeometry>
        </mxCell>
        <mxCell id="wtMzdkBzMsgTNk8zBj8u-88" value="" style="endArrow=none;html=1;rounded=0;" edge="1" parent="1">
          <mxGeometry width="50" height="50" relative="1" as="geometry">
            <mxPoint x="1680" y="1240" as="sourcePoint" />
            <mxPoint x="1840" y="1240" as="targetPoint" />
          </mxGeometry>
        </mxCell>
        <mxCell id="wtMzdkBzMsgTNk8zBj8u-89" value="" style="endArrow=none;html=1;rounded=0;" edge="1" parent="1">
          <mxGeometry width="50" height="50" relative="1" as="geometry">
            <mxPoint x="1760" y="1280" as="sourcePoint" />
            <mxPoint x="1760" y="1240" as="targetPoint" />
          </mxGeometry>
        </mxCell>
        <mxCell id="wtMzdkBzMsgTNk8zBj8u-90" value="" style="endArrow=none;html=1;rounded=0;entryX=0.524;entryY=1;entryDx=0;entryDy=0;entryPerimeter=0;" edge="1" parent="1" target="wtMzdkBzMsgTNk8zBj8u-70">
          <mxGeometry width="50" height="50" relative="1" as="geometry">
            <mxPoint x="1480" y="1280" as="sourcePoint" />
            <mxPoint x="1530" y="1230" as="targetPoint" />
          </mxGeometry>
        </mxCell>
        <mxCell id="wtMzdkBzMsgTNk8zBj8u-91" value="" style="endArrow=none;html=1;rounded=0;" edge="1" parent="1">
          <mxGeometry width="50" height="50" relative="1" as="geometry">
            <mxPoint x="1480" y="1280" as="sourcePoint" />
            <mxPoint x="1760" y="1280" as="targetPoint" />
          </mxGeometry>
        </mxCell>
        <mxCell id="wtMzdkBzMsgTNk8zBj8u-92" value="" style="endArrow=none;html=1;rounded=0;" edge="1" parent="1">
          <mxGeometry width="50" height="50" relative="1" as="geometry">
            <mxPoint x="1640" y="1320" as="sourcePoint" />
            <mxPoint x="1640" y="1280" as="targetPoint" />
          </mxGeometry>
        </mxCell>
        <mxCell id="wtMzdkBzMsgTNk8zBj8u-93" value="{" style="text;html=1;align=center;verticalAlign=middle;whiteSpace=wrap;rounded=0;" vertex="1" parent="1">
          <mxGeometry x="1480" y="960" width="20" height="30" as="geometry" />
        </mxCell>
        <mxCell id="wtMzdkBzMsgTNk8zBj8u-94" value="}" style="text;html=1;align=center;verticalAlign=middle;whiteSpace=wrap;rounded=0;" vertex="1" parent="1">
          <mxGeometry x="1480" y="1070" width="10" height="30" as="geometry" />
        </mxCell>
        <mxCell id="wtMzdkBzMsgTNk8zBj8u-95" value="{" style="text;html=1;align=center;verticalAlign=middle;whiteSpace=wrap;rounded=0;" vertex="1" parent="1">
          <mxGeometry x="1730" y="935" width="20" height="30" as="geometry" />
        </mxCell>
        <mxCell id="wtMzdkBzMsgTNk8zBj8u-96" value="}" style="text;html=1;align=center;verticalAlign=middle;whiteSpace=wrap;rounded=0;" vertex="1" parent="1">
          <mxGeometry x="1761" y="1240" width="10" height="30" as="geometry" />
        </mxCell>
        <mxCell id="wtMzdkBzMsgTNk8zBj8u-97" value="}" style="text;html=1;align=center;verticalAlign=middle;whiteSpace=wrap;rounded=0;" vertex="1" parent="1">
          <mxGeometry x="1640.5" y="1280" width="10" height="30" as="geometry" />
        </mxCell>
        <mxCell id="wtMzdkBzMsgTNk8zBj8u-98" value="" style="endArrow=none;html=1;rounded=0;" edge="1" parent="1">
          <mxGeometry width="50" height="50" relative="1" as="geometry">
            <mxPoint x="1320" y="1320" as="sourcePoint" />
            <mxPoint x="1640" y="1320" as="targetPoint" />
          </mxGeometry>
        </mxCell>
        <mxCell id="wtMzdkBzMsgTNk8zBj8u-99" value="" style="endArrow=none;html=1;rounded=0;" edge="1" parent="1">
          <mxGeometry width="50" height="50" relative="1" as="geometry">
            <mxPoint x="1320" y="1320" as="sourcePoint" />
            <mxPoint x="1320" y="740" as="targetPoint" />
          </mxGeometry>
        </mxCell>
        <mxCell id="wtMzdkBzMsgTNk8zBj8u-100" value="" style="endArrow=classic;html=1;rounded=0;entryX=0;entryY=0.5;entryDx=0;entryDy=0;" edge="1" parent="1" target="wtMzdkBzMsgTNk8zBj8u-55">
          <mxGeometry width="50" height="50" relative="1" as="geometry">
            <mxPoint x="1320" y="740" as="sourcePoint" />
            <mxPoint x="1370" y="690" as="targetPoint" />
          </mxGeometry>
        </mxCell>
        <mxCell id="wtMzdkBzMsgTNk8zBj8u-101" value="" style="endArrow=none;html=1;rounded=0;" edge="1" parent="1">
          <mxGeometry width="50" height="50" relative="1" as="geometry">
            <mxPoint x="1715" y="738" as="sourcePoint" />
            <mxPoint x="1960" y="740" as="targetPoint" />
          </mxGeometry>
        </mxCell>
        <mxCell id="wtMzdkBzMsgTNk8zBj8u-102" value="" style="endArrow=none;html=1;rounded=0;" edge="1" parent="1">
          <mxGeometry width="50" height="50" relative="1" as="geometry">
            <mxPoint x="1960" y="1360" as="sourcePoint" />
            <mxPoint x="1960" y="740" as="targetPoint" />
          </mxGeometry>
        </mxCell>
        <mxCell id="wtMzdkBzMsgTNk8zBj8u-103" value="" style="endArrow=none;html=1;rounded=0;" edge="1" parent="1">
          <mxGeometry width="50" height="50" relative="1" as="geometry">
            <mxPoint x="1280" y="1360" as="sourcePoint" />
            <mxPoint x="1960" y="1360" as="targetPoint" />
          </mxGeometry>
        </mxCell>
        <mxCell id="wtMzdkBzMsgTNk8zBj8u-104" value="" style="endArrow=none;html=1;rounded=0;" edge="1" parent="1">
          <mxGeometry width="50" height="50" relative="1" as="geometry">
            <mxPoint x="1280" y="1360" as="sourcePoint" />
            <mxPoint x="1280" y="540" as="targetPoint" />
          </mxGeometry>
        </mxCell>
        <mxCell id="wtMzdkBzMsgTNk8zBj8u-105" value="" style="endArrow=classic;html=1;rounded=0;" edge="1" parent="1">
          <mxGeometry width="50" height="50" relative="1" as="geometry">
            <mxPoint x="1280" y="540" as="sourcePoint" />
            <mxPoint x="1600" y="540" as="targetPoint" />
          </mxGeometry>
        </mxCell>
        <mxCell id="wtMzdkBzMsgTNk8zBj8u-106" value="1" style="text;html=1;align=center;verticalAlign=middle;whiteSpace=wrap;rounded=0;" vertex="1" parent="1">
          <mxGeometry x="1586" y="640" width="14" height="30" as="geometry" />
        </mxCell>
        <mxCell id="wtMzdkBzMsgTNk8zBj8u-107" value="{" style="text;html=1;align=center;verticalAlign=middle;whiteSpace=wrap;rounded=0;" vertex="1" parent="1">
          <mxGeometry x="1600" y="640" width="15" height="30" as="geometry" />
        </mxCell>
        <mxCell id="wtMzdkBzMsgTNk8zBj8u-108" value="}" style="text;html=1;align=center;verticalAlign=middle;whiteSpace=wrap;rounded=0;" vertex="1" parent="1">
          <mxGeometry x="1726" y="739" width="15" height="30" as="geometry" />
        </mxCell>
        <mxCell id="wtMzdkBzMsgTNk8zBj8u-109" value="0" style="text;html=1;align=center;verticalAlign=middle;whiteSpace=wrap;rounded=0;" vertex="1" parent="1">
          <mxGeometry x="1715" y="710" width="22" height="30" as="geometry" />
        </mxCell>
        <mxCell id="wtMzdkBzMsgTNk8zBj8u-110" value="" style="endArrow=none;html=1;rounded=0;" edge="1" parent="1">
          <mxGeometry width="50" height="50" relative="1" as="geometry">
            <mxPoint x="1819" y="600" as="sourcePoint" />
            <mxPoint x="2160" y="600" as="targetPoint" />
          </mxGeometry>
        </mxCell>
        <mxCell id="wtMzdkBzMsgTNk8zBj8u-111" value="0" style="text;html=1;align=center;verticalAlign=middle;whiteSpace=wrap;rounded=0;" vertex="1" parent="1">
          <mxGeometry x="1818" y="570" width="12" height="30" as="geometry" />
        </mxCell>
        <mxCell id="wtMzdkBzMsgTNk8zBj8u-112" value="" style="endArrow=classic;html=1;rounded=0;" edge="1" parent="1">
          <mxGeometry width="50" height="50" relative="1" as="geometry">
            <mxPoint x="2160" y="600" as="sourcePoint" />
            <mxPoint x="2160" y="640" as="targetPoint" />
          </mxGeometry>
        </mxCell>
        <mxCell id="wtMzdkBzMsgTNk8zBj8u-116" style="edgeStyle=orthogonalEdgeStyle;rounded=0;orthogonalLoop=1;jettySize=auto;html=1;entryX=0.5;entryY=0;entryDx=0;entryDy=0;" edge="1" parent="1" source="wtMzdkBzMsgTNk8zBj8u-113" target="wtMzdkBzMsgTNk8zBj8u-115">
          <mxGeometry relative="1" as="geometry" />
        </mxCell>
        <mxCell id="wtMzdkBzMsgTNk8zBj8u-113" value="delete[] tablet;" style="rounded=0;whiteSpace=wrap;html=1;" vertex="1" parent="1">
          <mxGeometry x="2100" y="640" width="120" height="20" as="geometry" />
        </mxCell>
        <mxCell id="wtMzdkBzMsgTNk8zBj8u-115" value="return result;" style="rounded=0;whiteSpace=wrap;html=1;" vertex="1" parent="1">
          <mxGeometry x="2100" y="690" width="120" height="20" as="geometry" />
        </mxCell>
        <mxCell id="wtMzdkBzMsgTNk8zBj8u-117" value="}" style="text;html=1;align=center;verticalAlign=middle;whiteSpace=wrap;rounded=0;" vertex="1" parent="1">
          <mxGeometry x="2160" y="710" width="20" height="30" as="geometry" />
        </mxCell>
      </root>
    </mxGraphModel>
  </diagram>
</mxfile>
